HIERARCHY
ROOT Hips
{
	OFFSET 0.00000 0.00000 0.00000
	CHANNELS 6 Xposition Yposition Zposition Zrotation Yrotation Xrotation 
	JOINT LHipJoint
	{
		OFFSET 0 0 0
		CHANNELS 3 Zrotation Yrotation Xrotation
		JOINT LeftHip
		{
			OFFSET 1.41496 -1.84582 0.78394
			CHANNELS 3 Zrotation Yrotation Xrotation
			JOINT LeftKnee
			{
				OFFSET 2.58040 -7.08960 0.00000
				CHANNELS 3 Zrotation Yrotation Xrotation
				JOINT LeftAnkle
				{
					OFFSET 2.64719 -7.27309 0.00000
					CHANNELS 3 Zrotation Yrotation Xrotation
					JOINT LeftToe
					{
						OFFSET 0.20718 -0.56921 2.20259
						CHANNELS 3 Zrotation Yrotation Xrotation
						End Site
						{
							OFFSET 0.00000 -0.00000 1.14243
						}
					}
				}
			}
		}
	}
	JOINT RHipJoint
	{
		OFFSET 0 0 0
		CHANNELS 3 Zrotation Yrotation Xrotation
		JOINT RightHip
		{
			OFFSET -1.40551 -1.84582 0.78394
			CHANNELS 3 Zrotation Yrotation Xrotation
			JOINT RightKnee
			{
				OFFSET -2.56572 -7.04926 0.00000
				CHANNELS 3 Zrotation Yrotation Xrotation
				JOINT RightAnkle
				{
					OFFSET -2.57974 -7.08778 0.00000
					CHANNELS 3 Zrotation Yrotation Xrotation
					JOINT RightToe
					{
						OFFSET -0.26704 -0.73369 2.20815
						CHANNELS 3 Zrotation Yrotation Xrotation
						End Site
						{
							OFFSET -0.00000 -0.00000 1.16246
						}
					}
				}
			}
		}
	}
	JOINT lowerback
	{
		OFFSET 0 0 0
		CHANNELS 3 Zrotation Yrotation Xrotation
		JOINT Chest
		{
			OFFSET -0.04690 2.05196 -0.07017
			CHANNELS 3 Zrotation Yrotation Xrotation
			JOINT Chest2
			{
				OFFSET 0.04085 2.05260 0.00800
				CHANNELS 3 Zrotation Yrotation Xrotation
				JOINT lowerneck
				{
					OFFSET 0 0 0
					CHANNELS 3 Zrotation Yrotation Xrotation
					JOINT Neck
					{
						OFFSET -0.03582 1.80995 0.19301
						CHANNELS 3 Zrotation Yrotation Xrotation
						JOINT Head
						{
							OFFSET 0.00952 1.80195 -0.36389
							CHANNELS 3 Zrotation Yrotation Xrotation
							End Site
							{
								OFFSET 0.00392 1.85062 -0.14494
							}
						}
					}
				}
				JOINT LeftCollar
				{
					OFFSET 0 0 0
					CHANNELS 3 Zrotation Yrotation Xrotation
					JOINT LeftShoulder
					{
						OFFSET 3.55224 1.39726 -0.13667
CHANNELS 3 Zrotation Xrotation Yrotation
						JOINT LeftElbow
						{
OFFSET 0 -5.145070 -0.000000
CHANNELS 3 Zrotation Xrotation Yrotation
							JOINT LeftWrist
							{
OFFSET 0 -3.506460 0.000000
CHANNELS 3 Zrotation Xrotation Yrotation
								JOINT lhand
								{
									OFFSET 0 0 0
CHANNELS 3 Zrotation Xrotation Yrotation
									JOINT LFingers
									{
OFFSET 0 -0.629970 0.000000
CHANNELS 3 Zrotation Xrotation Yrotation
										End Site
										{
OFFSET 0 -0.507900 0.000000
										}
									}
								}
								JOINT LThumb
								{
OFFSET 0 0.000000 0.000000
CHANNELS 3 Zrotation Xrotation Yrotation
									End Site
									{
OFFSET 0 -0.515650 0.515650
									}
								}
							}
						}
					}
				}
				JOINT RightCollar
				{
					OFFSET 0 0 0
					CHANNELS 3 Zrotation Yrotation Xrotation
					JOINT RightShoulder
					{
						OFFSET -3.06467 1.61290 -0.28813
CHANNELS 3 Zrotation Xrotation Yrotation
						JOINT RightElbow
						{
OFFSET 0 -5.232000 -0.000000
CHANNELS 3 Zrotation Xrotation Yrotation
							JOINT RightWrist
							{
OFFSET 0 -3.656410 0.000000
CHANNELS 3 Zrotation Xrotation Yrotation
								JOINT rhand
								{
									OFFSET 0 0 0
CHANNELS 3 Zrotation Xrotation Yrotation
									JOINT RFingers
									{
OFFSET 0 -0.656810 0.000000
CHANNELS 3 Zrotation Xrotation Yrotation
										End Site
										{
OFFSET 0 -0.529530 0.000000
										}
									}
								}
								JOINT RThumb
								{
OFFSET 0 0.000000 0.000000
CHANNELS 3 Zrotation Xrotation Yrotation
									End Site
									{
OFFSET 0 -0.537620 0.537620
									}
								}
							}
						}
					}
				}
			}
		}
	}
}
MOTION
Frames: 6
Frame Time: 0.008333333333333333
1.960534 17.942045 -26.172509 -181.174055 -15.751173 -179.339007 0.000000 0.000000 0.000000 -19.351444 -14.673690 -16.828503 3.946887 12.089410 36.049009 -0.100729 -19.174954 -12.601029 0.080344 1.827717 5.029873 0.000000 0.000000 0.000000 10.965717 15.196835 -15.148309 -2.486663 -9.813666 28.375299 -0.207892 5.954503 -8.533598 -1.737169 8.295717 -23.615963 -0.787143 -2.110129 11.605559 1.732452 -2.861819 -0.314754 2.764113 -1.368604 -6.718973 -6.489935 -5.748437 -15.561898 3.784861 -6.870842 10.382169 1.567778 -3.306441 6.037179 0.000000 0.000000 0.000000 0.066898 12.446983 -12.609494 29.758156 -40.684293 11.251993 12.826457 8.215614 -0.951628 0.000000 0.000000 0.000000 -7.125000 0.000000 0.000000 -10.891525 30.847664 -3.827013 0.000000 0.000000 0.000000 -6.811767 11.739992 3.242370 -27.287382 -38.451874 -9.677349 -26.825162 2.185542 10.156205 0.000000 0.000000 0.000000 7.125000 0.000000 0.000000 0.175564 41.330471 0.015957
1.938080 17.946676 -26.187466 -181.201977 -15.562071 -179.312825 0.000000 0.000000 0.000000 -19.453930 -14.564622 -16.711442 3.923461 12.057868 35.937041 -0.096663 -19.146263 -12.615751 0.091729 1.951386 5.371446 0.000000 0.000000 0.000000 10.898958 15.216981 -15.083097 -2.477448 -9.796795 28.321068 -0.212616 6.039766 -8.634686 -1.747531 8.319141 -23.687760 -0.856538 -2.122429 11.455896 1.720810 -2.884200 -0.377463 2.788977 -1.375794 -6.697180 -6.444860 -5.717427 -15.727947 3.763658 -6.826439 10.461928 1.553972 -3.282641 6.085316 0.000000 0.000000 0.000000 0.053851 12.301678 -12.974509 29.224286 -40.217167 10.905974 12.261655 8.299859 -1.180273 0.000000 0.000000 0.000000 -7.125000 0.000000 0.000000 -11.362770 31.065424 -3.937380 0.000000 0.000000 0.000000 -6.621931 11.664248 3.449028 -27.231852 -38.399369 -9.642812 -26.693323 2.279117 10.085862 0.000000 0.000000 0.000000 7.125000 0.000000 0.000000 0.287095 41.239461 0.026770
1.916299 17.951293 -26.201979 -181.219987 -15.375913 -179.283050 0.000000 0.000000 0.000000 -19.539262 -14.444664 -16.615948 3.901265 12.027843 35.830587 -0.095531 -19.130407 -12.613991 0.103980 2.077506 5.719996 0.000000 0.000000 0.000000 10.844465 15.241523 -15.027271 -2.469444 -9.782153 28.274029 -0.217958 6.112107 -8.741663 -1.754660 8.335185 -23.736955 -0.917752 -2.133153 11.309085 1.713140 -2.903210 -0.441201 2.813065 -1.381593 -6.678356 -6.401066 -5.688907 -15.895080 3.744261 -6.785425 10.540582 1.540653 -3.260365 6.133594 0.000000 0.000000 0.000000 0.045207 12.138736 -13.334526 28.691608 -39.743296 10.563649 11.694298 8.401257 -1.403966 0.000000 0.000000 0.000000 -7.125000 0.000000 0.000000 -11.836976 31.276421 -4.046868 0.000000 0.000000 0.000000 -6.438138 11.597488 3.670411 -27.174056 -38.344652 -9.606922 -26.552491 2.368169 10.023983 0.000000 0.000000 0.000000 7.125000 0.000000 0.000000 0.407141 41.157114 0.038714
1.895229 17.955910 -26.215991 -181.227088 -15.191708 -179.249614 0.000000 0.000000 0.000000 -19.605738 -14.312970 -16.543156 3.880440 11.999547 35.730331 -0.097295 -19.127270 -12.595978 0.117083 2.205741 6.074635 0.000000 0.000000 0.000000 10.803785 15.270261 -14.981652 -2.462703 -9.769871 28.234563 -0.223925 6.171218 -8.854671 -1.758411 8.343577 -23.762698 -0.969953 -2.142047 11.165836 1.709713 -2.918372 -0.506710 2.836183 -1.385763 -6.663747 -6.358507 -5.662575 -16.061675 3.726543 -6.747525 10.618468 1.527821 -3.239520 6.181814 0.000000 0.000000 0.000000 0.041135 11.959041 -13.688750 28.159622 -39.262232 10.224730 11.123343 8.520953 -1.623837 0.000000 0.000000 0.000000 -7.125000 0.000000 0.000000 -12.315103 31.481801 -4.155608 0.000000 0.000000 0.000000 -6.260192 11.540210 3.905518 -27.113828 -38.287541 -9.569589 -26.404275 2.454456 9.969217 0.000000 0.000000 0.000000 7.125000 0.000000 0.000000 0.534152 41.082087 0.051650
1.875294 17.960527 -26.229403 -181.216828 -15.009438 -179.211504 0.000000 0.000000 0.000000 -19.644434 -14.164047 -16.501015 3.861751 11.974189 35.640625 -0.102865 -19.141561 -12.556328 0.131521 2.336782 6.437488 0.000000 0.000000 0.000000 10.785610 15.301335 -14.950725 -2.458232 -9.761662 28.208252 -0.230961 6.209695 -8.978162 -1.756286 8.338813 -23.748040 -1.011068 -2.148203 11.026660 1.713230 -2.928193 -0.574355 2.859636 -1.387595 -6.654146 -6.323695 -5.639782 -16.226868 3.715769 -6.714032 10.699159 1.517927 -3.220612 6.231504 0.000000 0.000000 0.000000 0.040402 11.754639 -14.025878 27.628572 -38.770684 9.890753 10.538499 8.674640 -1.841505 0.000000 0.000000 0.000000 -7.125000 0.000000 0.000000 -12.805918 31.682172 -4.264881 0.000000 0.000000 0.000000 -6.091262 11.488541 4.151109 -27.040979 -38.218210 -9.524443 -26.249782 2.544015 9.914250 0.000000 0.000000 0.000000 7.125000 0.000000 0.000000 0.666438 41.006527 0.065722
1.856103 17.965091 -26.242444 -181.193826 -14.826213 -179.173394 0.000000 0.000000 0.000000 -19.664231 -14.003923 -16.477243 3.845027 11.951273 35.559785 -0.110771 -19.163869 -12.501921 0.147551 2.473715 6.816958 0.000000 0.000000 0.000000 10.785006 15.325136 -14.932379 -2.456151 -9.757807 28.195850 -0.238952 6.234368 -9.110998 -1.750338 8.325449 -23.706997 -1.041512 -2.152077 10.893643 1.721102 -2.933501 -0.643275 2.881336 -1.387516 -6.649854 -6.290688 -5.618317 -16.391902 3.706907 -6.682397 10.782027 1.508776 -3.202553 6.282203 0.000000 0.000000 0.000000 0.043438 11.540309 -14.354247 27.109678 -38.281525 9.567765 9.936719 8.850730 -2.071595 0.000000 0.000000 0.000000 -7.125000 0.000000 0.000000 -13.313456 31.892365 -4.372403 0.000000 0.000000 0.000000 -5.929179 11.441173 4.406946 -26.958468 -38.139535 -9.473458 -26.095396 2.639892 9.865336 0.000000 0.000000 0.000000 7.125000 0.000000 0.000000 0.799043 40.937867 0.080165
